#!OML:ASF E:\Style6\Style6.ASF
:FULLY-SPECIFIED
:DEGREES
3959
root 0.86124 17.2532 1.30435 -11.7268 -30.713 1.59109
lowerback -5.20672 -1.46978 3.98005
upperback 8.08128 -3.07962 5.24299
thorax 11.7631 -1.47686 2.98409
lowerneck 13.1916 3.17436 4.63896
upperneck 9.30315 4.84132 -4.97321
head 0.989624 2.52159 -2.54037
rclavicle -1.11319e-014 -2.06736e-014
rhumerus -33.4261 -17.6273 -70.7962
rradius 72.9537
rwrist -38.3436
rhand -3.59929 7.71631
rfingers 7.12502
rthumb 22.1387 -21.0361
lclavicle -1.11319e-014 -2.06736e-014
lhumerus -22.8807 -18.0281 90.4821
lradius 66.4066
lwrist -1.27141
lhand 8.02953 17.7389
lfingers 7.12502
lthumb 33.2551 44.685
rfemur -10.5909 2.40176 14.0028
rtibia 41.2814
rfoot -12.7706 11.3997
rtoes -9.08619
lfemur 6.72975 6.0343 -24.3003
ltibia 33.6698
lfoot -24.245 27.5397
ltoes -2.8466
3960
root 0.840938 17.2472 1.31239 -11.887 -30.765 1.4752
lowerback -5.24898 -1.35617 3.78684
upperback 8.05265 -2.89352 5.1571
thorax 11.7518 -1.39792 3.02528
lowerneck 13.2758 3.3163 4.68647
upperneck 9.32002 5.03952 -4.97071
head 0.993766 2.62334 -2.55517
rclavicle -2.18663e-014 -5.88403e-014
rhumerus -34.6017 -18.0968 -70.2283
rradius 73.0747
rwrist -38.4775
rhand -3.68881 7.67799
rfingers 7.12502
rthumb 22.0528 -21.0846
lclavicle -2.18663e-014 -5.88403e-014
lhumerus -23.6561 -18.1576 90.6639
lradius 65.4998
lwrist -1.33525
lhand 8.58329 18.0169
lfingers 7.12502
lthumb 33.7814 44.8489
rfemur -10.3039 2.35431 14.1652
rtibia 41.3085
rfoot -12.8743 11.4525
rtoes -9.0168
lfemur 6.99703 5.8469 -24.2025
ltibia 33.6981
lfoot -24.3236 27.7194
ltoes -2.73426
3961
root 0.815579 17.2451 1.32204 -12.1715 -30.5419 2.01306
lowerback -5.59309 -1.28539 2.91187
upperback 7.99677 -2.68679 4.91008
thorax 11.9102 -1.35678 3.27197
lowerneck 13.4062 3.4298 4.89933
upperneck 9.19154 5.22579 -5.10503
head 0.950656 2.72624 -2.64926
rclavicle -1.23545e-013 1.59028e-014
rhumerus -35.7728 -18.7348 -69.6392
rradius 73.0726
rwrist -38.4852
rhand -3.69277 7.59372
rfingers 7.12502
rthumb 22.049 -21.1693
lclavicle -1.23545e-013 1.59028e-014
lhumerus -24.2632 -18.2816 90.7306
lradius 64.4806
lwrist -1.08622
lhand 9.36588 18.3686
lfingers 7.12502
lthumb 34.5247 45.0343
rfemur -10.2131 2.26321 13.6632
rtibia 41.3358
rfoot -13.0401 11.3824
rtoes -9.71758
lfemur 7.06803 5.48117 -24.8004
ltibia 33.6301
lfoot -24.4522 27.8401
ltoes -2.1081
3962
root 0.79077 17.2454 1.3331 -12.3171 -30.3931 2.09342
lowerback -5.82733 -1.20725 2.47624
upperback 7.96653 -2.52225 4.75683
thorax 12.0195 -1.30481 3.37211
lowerneck 13.4711 3.54642 5.005
upperneck 9.01501 5.39933 -5.21509
head 0.898387 2.81897 -2.71437
rclavicle -7.02704e-014 3.81667e-014
rhumerus -36.8746 -19.4022 -69.0643
rradius 72.8498
rwrist -38.3859
rhand -3.63089 7.49203
rfingers 7.12502
rthumb 22.1084 -21.264
lclavicle -7.02704e-014 3.81667e-014
lhumerus -24.8675 -18.2519 90.7028
lradius 63.3957
lwrist -0.708697
lhand 10.4617 18.5349
lfingers 7.12502
lthumb 35.5641 44.9573
rfemur -9.98046 2.33927 13.646
rtibia 41.3514
rfoot -13.2461 11.1976
rtoes -10.6398
lfemur 7.36551 5.22026 -24.902
ltibia 33.4191
lfoot -24.6191 27.8147
ltoes -1.28687
3963
root 0.766122 17.2476 1.34619 -12.5014 -30.3588 2.03723
lowerback -5.94592 -1.09197 2.24386
upperback 7.9659 -2.32805 4.62669
thorax 12.0829 -1.22299 3.39074
lowerneck 13.3559 3.66776 4.98766
upperneck 8.94966 5.5597 -5.30181
head 0.907321 2.89889 -2.74244
rclavicle -3.67752e-014 -1.11319e-014
rhumerus -37.9603 -20.1645 -68.4547
rradius 72.4875
rwrist -38.2255
rhand -3.55534 7.25612
rfingers 7.12502
rthumb 22.1809 -21.4913
lclavicle -3.67752e-014 -1.11319e-014
lhumerus -25.4109 -18.1909 90.6188
lradius 62.236
lwrist -0.477638
lhand 11.0381 18.5943
lfingers 7.12502
lthumb 36.1103 44.8836
rfemur -9.58218 2.53104 13.8016
rtibia 41.29
rfoot -13.3788 10.995
rtoes -10.9389
lfemur 7.84656 5.12865 -24.7898
ltibia 33.1459
lfoot -24.6727 27.7895
ltoes -1.14883
3964
root 0.74129 17.2497 1.36149 -12.7754 -30.2498 2.05719
lowerback -6.03459 -0.968684 2.01975
upperback 7.98241 -2.11321 4.41786
thorax 12.1412 -1.12574 3.32284
lowerneck 13.1718 3.76527 4.97984
upperneck 8.93759 5.68753 -5.34916
head 0.942335 2.96161 -2.75528
rclavicle -5.96354e-014 4.13472e-014
rhumerus -39.1072 -21.1215 -67.8466
rradius 72.0711
rwrist -38.0252
rhand -3.55674 6.95508
rfingers 7.12502
rthumb 22.1796 -21.7925
lclavicle -5.96354e-014 4.13472e-014
lhumerus -25.9132 -18.1017 90.4075
lradius 61.2218
lwrist -0.307523
lhand 11.3288 19.0261
lfingers 7.12502
lthumb 36.3855 45.247
rfemur -9.05047 2.69211 13.8727
rtibia 41.111
rfoot -13.5868 10.6303
rtoes -12.5171
lfemur 8.38505 5.02823 -24.7689
ltibia 32.9351
lfoot -24.5713 27.8845
ltoes -1.77176
3965
root 0.718431 17.2544 1.37444 -12.7913 -30.1441 1.66226
lowerback -6.08664 -0.856219 2.14581
upperback 7.94307 -1.95809 4.28582
thorax 12.1085 -1.03012 3.13137
lowerneck 13.1574 3.83519 5.07646
upperneck 8.78873 5.79495 -5.43711
head 0.908012 3.01993 -2.80712
rclavicle 8.61732e-014 -2.38542e-014
rhumerus -40.3441 -21.9878 -67.2437
rradius 71.6695
rwrist -37.9764
rhand -3.4351 6.66404
rfingers 7.12502
rthumb 22.2963 -22.0696
lclavicle 8.61732e-014 -2.38542e-014
lhumerus -26.4687 -17.8058 90.0512
lradius 60.377
lwrist -0.219007
lhand 11.821 19.6782
lfingers 7.12502
lthumb 36.8514 45.7809
rfemur -8.52358 2.91968 14.3819
rtibia 40.8388
rfoot -13.7686 10.0336
rtoes -14.3602
lfemur 8.8107 4.84967 -24.3641
ltibia 32.8023
lfoot -24.6466 27.8546
ltoes -1.74274
3966
root 0.696308 17.2638 1.38484 -12.5607 -29.9877 1.15311
lowerback -6.26216 -0.812693 2.28552
upperback 7.82578 -1.90621 4.21059
thorax 12.0706 -0.985795 2.97555
lowerneck 13.1292 3.92965 5.16189
upperneck 8.60041 5.93518 -5.61771
head 0.867844 3.09467 -2.88964
rclavicle 1.799e-014 -1.74931e-014
rhumerus -41.4861 -22.5694 -66.6953
rradius 71.2008
rwrist -38.0066
rhand -3.73364 6.34095
rfingers 7.12502
rthumb 22.0097 -22.4267
lclavicle 1.799e-014 -1.74931e-014
lhumerus -27.0211 -17.158 89.5866
lradius 59.4886
lwrist -0.49511
lhand 12.2876 20.0203
lfingers 7.12502
lthumb 37.2927 46.0086
rfemur -8.19219 3.12385 14.9941
rtibia 40.5475
rfoot -13.7883 9.53181
rtoes -14.4906
lfemur 8.94268 4.58223 -23.8684
ltibia 32.7326
lfoot -24.6006 27.8654
ltoes -1.95068
3967
root 0.670141 17.2723 1.39321 -12.4446 -29.7541 0.778504
lowerback -6.41452 -0.730777 2.27547
upperback 7.69461 -1.78243 4.14143
thorax 12.0047 -0.920547 2.9227
lowerneck 13.1514 3.96262 5.06511
upperneck 8.4079 5.96983 -5.73504
head 0.80368 3.11196 -2.91602
rclavicle -2.87244e-014 -3.81667e-014
rhumerus -42.7059 -23.2321 -65.9717
rradius 70.6317
rwrist -38.0245
rhand -4.41882 6.27412
rfingers 7.12502
rthumb 21.3517 -22.5695
lclavicle -2.87244e-014 -3.81667e-014
lhumerus -27.5423 -16.6017 89.209
lradius 58.4474
lwrist -0.655157
lhand 12.5193 19.8151
lfingers 7.12502
lthumb 37.5117 45.7456
rfemur -7.80155 3.33276 15.4844
rtibia 40.2434
rfoot -13.7971 9.02323
rtoes -14.6657
lfemur 9.08025 4.2777 -23.4918
ltibia 32.726
lfoot -24.5549 27.8251
ltoes -2.0926
3968
root 0.644332 17.2788 1.39962 -12.491 -29.459 0.613164
lowerback -6.49613 -0.555265 2.17638
upperback 7.57352 -1.5092 4.00278
thorax 11.9005 -0.786938 2.86953
lowerneck 13.206 3.89144 4.89802
upperneck 8.18824 5.85497 -5.77589
head 0.711316 3.05319 -2.90091
rclavicle 6.16481e-014 -7.15625e-014
rhumerus -44.054 -24.168 -65.0802
rradius 70.1313
rwrist -38.2155
rhand -4.91841 6.20037
rfingers 7.12502
rthumb 20.8718 -22.6969
lclavicle 6.16481e-014 -7.15625e-014
lhumerus -28.0068 -16.3052 88.9185
lradius 57.4159
lwrist -0.10225
lhand 12.1091 19.6063
lfingers 7.12502
lthumb 37.1239 45.6386
rfemur -7.38242 3.45702 15.7563
rtibia 39.9801
rfoot -13.8305 8.54092
rtoes -15.347
lfemur 9.27459 4.00268 -23.3056
ltibia 32.716
lfoot -24.6321 27.6555
ltoes -1.85372
3969
root 0.630047 17.2847 1.41006 -12.4352 -28.9952 0.45298
lowerback -6.69154 -0.43993 2.14969
upperback 7.47675 -1.32966 3.82541
thorax 11.8957 -0.690073 2.719
lowerneck 13.1776 3.84604 4.76792
upperneck 7.94723 5.77707 -5.86047
head 0.630682 3.0136 -2.90631
rclavicle -1.72694e-015 -1.27222e-014
rhumerus -45.2361 -24.9626 -64.3605
rradius 69.6446
rwrist -38.6517
rhand -5.44237 6.02845
rfingers 7.12502
rthumb 20.3683 -22.9234
lclavicle -1.72694e-015 -1.27222e-014
lhumerus -28.3528 -15.9974 88.5651
lradius 56.4459
lwrist 0.93443
lhand 11.7125 20.1479
lfingers 7.12502
lthumb 36.7487 46.277
rfemur -7.05269 3.33316 15.918
rtibia 39.7608
rfoot -13.9317 8.13563
rtoes -15.8549
lfemur 9.37974 3.62471 -23.1941
ltibia 32.6486
lfoot -24.4894 27.645
ltoes -2.32935
